Coordinates
version=1
nRows=43
nColumns=12
inDegrees=yes

Units are S.I. units (second, meters, Newtons, ...)
Angles are in degrees

endheader
time	SC_y	SC_z	SC_x	AC_y	AC_z	AC_x	GH_y	GH_z	GH_yy	EL_x	PS_y
       0.0              -19.95          18.79          2.134          64.23         -12.82           18.1          93.53         -8.201         -87.22          83.41          153.4
   0.01397              -19.96          18.79          2.144          64.23         -12.82           18.1          93.51         -8.201         -87.21           83.4          153.4
   0.02793              -19.96           18.8          2.153          64.23         -12.81           18.1           93.5         -8.202          -87.2          83.39          153.4
    0.0419              -19.97           18.8          2.164          64.22         -12.81           18.1          93.49         -8.202         -87.19          83.38          153.3
   0.05587              -19.98           18.8          2.175          64.22         -12.81           18.1          93.48         -8.202         -87.17          83.37          153.3
   0.06983              -19.98           18.8          2.187          64.21         -12.81           18.1          93.46         -8.203         -87.16          83.36          153.3
    0.0838              -19.99          18.81            2.2           64.2          -12.8           18.1          93.45         -8.203         -87.15          83.34          153.3
   0.09777               -20.0          18.81          2.213           64.2          -12.8           18.1          93.43         -8.203         -87.13          83.33          153.3
    0.1117               -20.0          18.81          2.228          64.19          -12.8           18.1          93.41         -8.204         -87.12          83.31          153.3
    0.1257              -20.01          18.82          2.244          64.18         -12.79           18.1          93.39         -8.204          -87.1           83.3          153.2
    0.1397              -20.02          18.82           2.26          64.18         -12.79           18.1          93.37         -8.205         -87.08          83.28          153.2
    0.1536              -20.03          18.83          2.278          64.17         -12.79           18.1          93.35         -8.205         -87.06          83.26          153.2
    0.1676              -20.04          18.83          2.298          64.16         -12.78          18.09          93.32         -8.206         -87.04          83.24          153.2
    0.1816              -20.05          18.84          2.319          64.15         -12.78          18.09           93.3         -8.206         -87.02          83.22          153.2
    0.1955              -20.07          18.84          2.342          64.14         -12.77          18.09          93.27         -8.207         -86.99           83.2          153.1
    0.2095              -20.08          18.85          2.366          64.13         -12.77          18.09          93.24         -8.208         -86.97          83.17          153.1
    0.2235               -20.1          18.85          2.393          64.11         -12.76          18.09           93.2         -8.208         -86.94          83.15          153.1
    0.2374              -20.11          18.86          2.422           64.1         -12.75          18.09          93.17         -8.209          -86.9          83.12          153.0
    0.2514              -20.13          18.87          2.454          64.09         -12.75          18.09          93.13          -8.21         -86.87          83.08          153.0
    0.2654              -20.15          18.88          2.489          64.07         -12.74          18.08          93.08         -8.211         -86.83          83.05          152.9
    0.2793              -20.17          18.89          2.528          64.05         -12.73          18.08          93.04         -8.212         -86.79          83.01          152.9
    0.2933              -20.19           18.9           2.57          64.03         -12.72          18.08          92.98         -8.214         -86.74          82.97          152.8
    0.3073              -20.22          18.91          2.617          64.01         -12.71          18.08          92.93         -8.215         -86.69          82.92          152.8
    0.3212              -20.25          18.92          2.668          63.99          -12.7          18.07          92.86         -8.216         -86.64          82.87          152.7
    0.3352              -20.28          18.93          2.726          63.96         -12.69          18.07          92.79         -8.218         -86.57          82.81          152.6
    0.3492              -20.31          18.95           2.79          63.93         -12.67          18.06          92.71          -8.22          -86.5          82.74          152.6
    0.3631              -20.35          18.96          2.862           63.9         -12.66          18.06          92.62         -8.222         -86.42          82.67          152.5
    0.3771               -20.4          18.98          2.942          63.86         -12.64          18.06          92.52         -8.224         -86.33          82.59          152.4
    0.3911              -20.45           19.0          3.034          63.82         -12.62          18.05          92.41         -8.227         -86.23           82.5          152.3
     0.405              -20.51          19.03          3.137          63.77          -12.6          18.04          92.28          -8.23         -86.12          82.39          152.1
     0.419              -20.57          19.06          3.256          63.71         -12.57          18.04          92.13         -8.233         -85.99          82.27          152.0
     0.433              -20.65          19.09          3.391          63.65         -12.54          18.03          91.96         -8.237         -85.84          82.13          151.8
    0.4469              -20.73          19.13          3.548          63.58         -12.51          18.02          91.77         -8.242         -85.67          81.98          151.6
    0.4609              -20.83          19.17           3.73          63.49         -12.47          18.01          91.54         -8.247         -85.47          81.79          151.4
    0.4749              -20.95          19.22          3.943          63.39         -12.42          17.99          91.28         -8.253         -85.24          81.58          151.1
    0.4888              -21.09          19.28          4.195          63.28         -12.36          17.98          90.96          -8.26         -84.96          81.32          150.8
    0.5028              -21.25          19.35          4.493          63.14          -12.3          17.96          90.59         -8.269         -84.64          81.02          150.4
    0.5168              -21.45          19.44          4.851          62.97         -12.22          17.94          90.15         -8.279         -84.25          80.65          150.0
    0.5307              -21.69          19.54          5.284          62.77         -12.12          17.91          89.61         -8.292         -83.77          80.22          149.5
    0.5447              -21.98          19.66          5.813          62.52         -12.01          17.88          88.95         -8.307         -83.19          79.68          148.8
    0.5587              -22.34          19.82          6.465          62.22         -11.86          17.84          88.14         -8.326         -82.48          79.02          148.0
    0.5726              -22.79          20.01          7.279          61.84         -11.68          17.79          87.13         -8.349         -81.59          78.19          147.0
    0.5866              -23.36          20.25          8.305          61.37         -11.46          17.72          85.85         -8.379         -80.46          77.15          145.7
